<svg xmlns="http://www.w3.org/2000/svg" width="182.125" height="34.13" viewBox="0 0 182.125 34.13">
  <defs>
    <style>
      .cls-1 {
        fill-rule: evenodd;
      }
    </style>
  </defs>
  <path id="ABOUT.svg" class="cls-1" d="M729.092,4890.11h9.217l-13.058-32.98h-9.216l-13.057,32.98h9.216l1.921-4.8h13.057Zm-12.433-11.23,3.984-10.13,3.984,10.13h-7.968Zm27.119,11.23h17.857c6.529,0,11.185-3.65,11.185-8.93,0-3.6-2.256-6.72-6.048-8.4a7.945,7.945,0,0,0,4.56-7.34c0-4.8-4.224-8.31-10.321-8.31H743.778v32.98Zm8.161-19.92v-6.1H759c2.256,0,3.888,1.25,3.888,3.03s-1.632,3.07-3.888,3.07h-7.056Zm0,12.96v-6.62h8.3c2.4,0,4.129,1.39,4.129,3.31s-1.729,3.31-4.129,3.31h-8.3Zm44.88,7.54c9.648,0,17.761-7.83,17.761-17.09s-8.113-17.04-17.761-17.04c-9.6,0-17.714,7.78-17.714,17.04S787.218,4890.69,796.819,4890.69Zm0-7.44a9.63,9.63,0,1,1,9.312-9.65A9.619,9.619,0,0,1,796.819,4883.25Zm40.559,7.44c9.025,0,15.313-6.19,15.313-15.03v-18.53H844.53v18.15c0,4.66-2.976,7.97-7.152,7.97-4.128,0-7.105-3.31-7.105-7.97v-18.15h-8.208v18.53C822.065,4884.5,828.4,4890.69,837.378,4890.69Zm29.519-.58h8.209v-25.63h9.985v-7.35H856.864v7.35H866.9v25.63Z" transform="translate(-702.969 -4856.56)"/>
</svg>
