<svg xmlns="http://www.w3.org/2000/svg" width="218.032" height="42.65" viewBox="0 0 218.032 42.65">
  <defs>
    <style>
      .cls-1 {
        fill-rule: evenodd;
      }
    </style>
  </defs>
  <path id="ABOUT.svg" class="cls-1" d="M606.7,3288.11h11.52l-16.32-41.22H590.381l-16.319,41.22h11.519l2.4-6H604.3Zm-15.539-14.04,4.98-12.66,4.979,12.66h-9.959Zm31.5,14.04H644.98c8.16,0,13.98-4.56,13.98-11.16,0-4.5-2.82-8.4-7.56-10.5a9.933,9.933,0,0,0,5.7-9.18c0-6-5.28-10.38-12.9-10.38H622.661v41.22Zm10.2-24.9v-7.62h8.82c2.819,0,4.859,1.56,4.859,3.78s-2.04,3.84-4.859,3.84h-8.82Zm0,16.2v-8.28h10.38c3,0,5.159,1.74,5.159,4.14s-2.16,4.14-5.159,4.14h-10.38Zm52.5,9.42c12.059,0,22.2-9.78,22.2-21.36s-10.14-21.3-22.2-21.3c-12,0-22.139,9.72-22.139,21.3S673.36,3288.83,685.36,3288.83Zm0-9.3c-6.3,0-11.64-5.52-11.64-12.06a11.645,11.645,0,1,1,23.279,0C697,3274.01,691.659,3279.53,685.36,3279.53Zm47.1,9.3c11.28,0,19.139-7.74,19.139-18.78v-23.16H741.4v22.68c0,5.82-3.72,9.96-8.94,9.96-5.16,0-8.88-4.14-8.88-9.96v-22.68H713.32v23.16C713.32,3281.09,721.24,3288.83,732.459,3288.83Zm36.9-.72h10.26v-32.04H792.1v-9.18H756.82v9.18h12.539v32.04Z" transform="translate(-574.062 -3246.19)"/>
</svg>
