<svg id="CONTACT.svg" xmlns="http://www.w3.org/2000/svg" width="592.062" height="85.31" viewBox="0 0 592.062 85.31">
  <defs>
    <style>
      .cls-1 {
        fill-rule: evenodd;
      }
    </style>
  </defs>
  <path id="C" class="cls-1" d="M268.5,3903.54a44.593,44.593,0,0,0,32.038-13.8L287.7,3878.22a25.681,25.681,0,0,1-19.2,9.24c-13.8,0-25.559-12.24-25.559-26.64,0-14.28,11.759-26.52,25.559-26.52a25.681,25.681,0,0,1,19.2,9.24l12.839-11.52a44.122,44.122,0,0,0-32.038-13.8c-23.639,0-43.8,19.44-43.8,42.6S244.858,3903.54,268.5,3903.54Z" transform="translate(-224.688 -3818.22)"/>
  <path id="O" class="cls-1" d="M351.5,3903.54c23.879,0,43.8-19.56,43.8-42.72s-19.919-42.6-43.8-42.6c-23.639,0-43.8,19.44-43.8,42.6S327.858,3903.54,351.5,3903.54Zm0-16.08c-13.8,0-25.559-12.24-25.559-26.64,0-14.28,11.759-26.52,25.559-26.52,13.919,0,25.679,12.24,25.679,26.52C377.176,3875.22,365.416,3887.46,351.5,3887.46Z" transform="translate(-224.688 -3818.22)"/>
  <path id="N" class="cls-1" d="M409.658,3903.1H427.3v-53.28l39.718,53.28h17.759v-82.44H467.016v53.28L427.3,3820.66h-17.64v82.44Z" transform="translate(-224.688 -3818.22)"/>
  <path id="T" class="cls-1" d="M523.3,3903.1h17.76v-66.48h25.679v-15.96H497.619v15.96H523.3v66.48Z" transform="translate(-224.688 -3818.22)"/>
  <path id="A" class="cls-1" d="M638.416,3903.1h19.919l-33.6-82.44h-19.8l-33.6,82.44h19.8l5.28-12.96h36.718Zm-35.879-27.96,12.24-30.12,12.239,30.12H602.537Z" transform="translate(-224.688 -3818.22)"/>
  <path id="C-2" data-name="C" class="cls-1" d="M709.5,3903.54a44.593,44.593,0,0,0,32.038-13.8L728.7,3878.22a25.681,25.681,0,0,1-19.2,9.24c-13.8,0-25.559-12.24-25.559-26.64,0-14.28,11.759-26.52,25.559-26.52a25.681,25.681,0,0,1,19.2,9.24l12.839-11.52a44.122,44.122,0,0,0-32.038-13.8c-23.639,0-43.8,19.44-43.8,42.6S685.858,3903.54,709.5,3903.54Z" transform="translate(-224.688 -3818.22)"/>
  <path id="T-2" data-name="T" class="cls-1" d="M773.3,3903.1h17.76v-66.48h25.679v-15.96H747.619v15.96H773.3v66.48Z" transform="translate(-224.688 -3818.22)"/>
</svg>
