<svg xmlns="http://www.w3.org/2000/svg" width="74.19" height="12.781" viewBox="0 0 74.19 12.781">
  <defs>
    <style>
      .cls-1 {
        fill-rule: evenodd;
      }
    </style>
  </defs>
  <path id="date1.svg" class="cls-1" d="M2207.47,264.445h9.61l0.58-2.754h-4.86l2.27-1.315c2.19-1.332,3.72-2.791,3.72-5.095,0-2.017-1.58-3.421-4.12-3.421a7.367,7.367,0,0,0-5.29,2.34l1.65,2.071a5.139,5.139,0,0,1,3.39-1.621,1.009,1.009,0,0,1,1.22.9c0,1.1-1.19,2.088-2.45,2.917l-5.24,3.475Zm18.72,0.216c4,0,6.97-3.8,6.97-7.886,0-2.953-1.8-4.915-4.7-4.915-4,0-6.97,3.781-6.97,7.868C2221.49,262.7,2223.29,264.661,2226.19,264.661Zm0.18-2.79c-1.1,0-1.75-.883-1.75-2.269,0-2.269,1.57-4.952,3.66-4.952,1.11,0,1.74.883,1.74,2.251C2230.02,259.17,2228.46,261.871,2226.37,261.871Zm8.71,2.574h9.61l0.58-2.754h-4.86l2.27-1.315c2.19-1.332,3.72-2.791,3.72-5.095,0-2.017-1.58-3.421-4.12-3.421a7.367,7.367,0,0,0-5.29,2.34l1.65,2.071a5.139,5.139,0,0,1,3.39-1.621,1.009,1.009,0,0,1,1.22.9c0,1.1-1.18,2.088-2.44,2.917l-5.24,3.475Zm18.72,0.216c4,0,6.97-3.8,6.97-7.886,0-2.953-1.8-4.915-4.7-4.915-4,0-6.97,3.781-6.97,7.868C2249.1,262.7,2250.9,264.661,2253.8,264.661Zm0.18-2.79c-1.1,0-1.75-.883-1.75-2.269,0-2.269,1.57-4.952,3.66-4.952,1.12,0,1.75.883,1.75,2.251C2257.64,259.17,2256.07,261.871,2253.98,261.871Zm10.78,2.79a2.1,2.1,0,0,0,2.02-2.07,1.6,1.6,0,0,0-1.62-1.639,2.06,2.06,0,0,0-2.07,2.017A1.617,1.617,0,0,0,2264.76,264.661Zm12.35-12.8c-3.04,0-5.62,2.142-5.62,5.059,0,2.017,1.52,3.241,3.62,3.241a5.415,5.415,0,0,0,2.76-.774,3.891,3.891,0,0,1-3.35,2.593,2.943,2.943,0,0,1-2.14-.865l-1.75,2.2a5.48,5.48,0,0,0,3.76,1.35c4.27,0,7.26-3.907,7.26-8.354C2281.65,253.642,2280.21,251.86,2277.11,251.86Zm-0.94,5.833a1.274,1.274,0,0,1-1.51-1.08,2.422,2.422,0,0,1,2.49-2.143,1.276,1.276,0,0,1,1.47,1.5v0.306A3,3,0,0,1,2276.17,257.693Z" transform="translate(-2207.47 -251.875)"/>
</svg>
