<svg xmlns="http://www.w3.org/2000/svg" width="68.75" height="12.781" viewBox="0 0 68.75 12.781">
  <defs>
    <style>
      .cls-1 {
        fill-rule: evenodd;
      }
    </style>
  </defs>
  <path id="date4.svg" class="cls-1" d="M2207.47,264.445h9.61l0.58-2.754h-4.86l2.27-1.315c2.19-1.332,3.72-2.791,3.72-5.095,0-2.017-1.58-3.421-4.12-3.421a7.367,7.367,0,0,0-5.29,2.34l1.65,2.071a5.139,5.139,0,0,1,3.39-1.621,1.009,1.009,0,0,1,1.22.9c0,1.1-1.19,2.088-2.45,2.917l-5.24,3.475Zm18.72,0.216c4,0,6.97-3.8,6.97-7.886,0-2.953-1.8-4.915-4.7-4.915-4,0-6.97,3.781-6.97,7.868C2221.49,262.7,2223.29,264.661,2226.19,264.661Zm0.18-2.79c-1.1,0-1.75-.883-1.75-2.269,0-2.269,1.57-4.952,3.66-4.952,1.11,0,1.74.883,1.74,2.251C2230.02,259.17,2228.46,261.871,2226.37,261.871Zm8.71,2.574h9.61l0.58-2.754h-4.86l2.27-1.315c2.19-1.332,3.72-2.791,3.72-5.095,0-2.017-1.58-3.421-4.12-3.421a7.367,7.367,0,0,0-5.29,2.34l1.65,2.071a5.139,5.139,0,0,1,3.39-1.621,1.009,1.009,0,0,1,1.22.9c0,1.1-1.18,2.088-2.44,2.917l-5.24,3.475Zm15.62,0h3.06l2.58-12.369h-2.47l-4.43,2.628,0.81,2.143,2.33-1.3Zm9.04,0.216a2.1,2.1,0,0,0,2.02-2.07,1.6,1.6,0,0,0-1.62-1.639,2.06,2.06,0,0,0-2.07,2.017A1.617,1.617,0,0,0,2259.74,264.661Zm5.15-.216h9.61l0.58-2.754h-4.86l2.27-1.315c2.19-1.332,3.72-2.791,3.72-5.095,0-2.017-1.58-3.421-4.12-3.421a7.367,7.367,0,0,0-5.29,2.34l1.65,2.071a5.119,5.119,0,0,1,3.39-1.621,1.009,1.009,0,0,1,1.22.9c0,1.1-1.19,2.088-2.45,2.917l-5.24,3.475Z" transform="translate(-2207.47 -251.875)"/>
</svg>
