<svg xmlns="http://www.w3.org/2000/svg" width="354.12" height="85.311" viewBox="0 0 354.12 85.311">
  <defs>
    <style>
      .cls-1 {
        fill-rule: evenodd;
      }
    </style>
  </defs>
  <path id="HOME.svg" class="cls-1" d="M2092.14,923.662v32.4h-37.56v-32.4h-17.64V1006.1h17.64V972.02h37.56v34.08h17.64V923.662h-17.64Zm74.52,83.878c23.88,0,43.79-19.56,43.79-42.719s-19.91-42.6-43.79-42.6c-23.64,0-43.8,19.44-43.8,42.6S2143.02,1007.54,2166.66,1007.54Zm0-16.08c-13.8,0-25.56-12.24-25.56-26.639,0-14.28,11.76-26.519,25.56-26.519,13.92,0,25.68,12.239,25.68,26.519C2192.34,979.22,2180.58,991.46,2166.66,991.46Zm57.6,14.64h17.64V954.741l25.56,46.559,25.43-46.559V1006.1h17.76V923.662h-17.76l-25.43,46.559-25.56-46.559h-17.64V1006.1Zm166.79-66.478v-15.96h-63.47V1006.1h63.47V990.14h-45.71V972.02h41.39V956.061h-41.39V939.622h45.71Z" transform="translate(-2036.94 -922.219)"/>
</svg>
