<svg id="job-title.svg" xmlns="http://www.w3.org/2000/svg" width="373.906" height="41.376" viewBox="0 0 373.906 41.376">
  <defs>
    <style>
      .cls-1, .cls-2 {
        fill-rule: evenodd;
      }

      .cls-2 {
        fill: none;
        stroke: #000;
        stroke-width: 1px;
      }
    </style>
  </defs>
  <path id="Coding" class="cls-1" d="M188.414,397.051a8.919,8.919,0,0,0,6.409-2.761l-2.569-2.3a5.136,5.136,0,0,1-3.84,1.848,5.321,5.321,0,0,1,0-10.633,5.134,5.134,0,0,1,3.84,1.849l2.569-2.305A8.643,8.643,0,1,0,188.414,397.051Zm16.512,0a6.5,6.5,0,1,0-6.793-6.5A6.705,6.705,0,0,0,204.926,397.051Zm0-2.953a3.543,3.543,0,1,1,3.408-3.552A3.536,3.536,0,0,1,204.926,394.1Zm20.3-14.113v6.145a5.1,5.1,0,0,0-4.176-2.065c-3.313,0-5.713,2.689-5.713,6.481,0,3.816,2.4,6.5,5.713,6.5a5.094,5.094,0,0,0,4.176-2.065v1.777h3.5V379.985h-3.5ZM222.062,394.1a3.548,3.548,0,0,1,0-7.08A3.562,3.562,0,0,1,222.062,394.1Zm13.415-11.449a1.9,1.9,0,1,0-1.92-1.92A1.9,1.9,0,0,0,235.477,382.649ZM233.7,396.763h3.5V384.354h-3.5v12.409Zm15.648-12.7a4.422,4.422,0,0,0-3.744,1.849v-1.56h-3.5v12.409h3.5v-7.417l0.024,0.072a2.47,2.47,0,0,1,2.592-2.4,2.364,2.364,0,0,1,2.352,2.592v7.153h3.385v-7.9A4.529,4.529,0,0,0,249.349,384.065Zm18.456,0.289v1.68a5.111,5.111,0,0,0-4.1-1.969c-3.12,0-5.5,2.425-5.5,5.881s2.377,5.9,5.5,5.9a5.281,5.281,0,0,0,4.1-1.921V395.3c0,1.609-1.44,2.641-3.7,2.641a5.864,5.864,0,0,1-3.7-1.176l-1.224,2.472a9.266,9.266,0,0,0,5.472,1.656c3.912,0,6.673-2.256,6.673-5.449V384.354h-3.529Zm-3,8.544a2.941,2.941,0,1,1,3-2.952A2.861,2.861,0,0,1,264.805,392.9Z" transform="translate(-179.656 -368.812)"/>
  <path id="長方形_4" data-name="長方形 4" class="cls-2" d="M357.342,369.347c0.17,0.065.229,0.207,0.13,0.318l-35.3,39.9a0.472,0.472,0,0,1-.487.085c-0.171-.064-0.229-0.206-0.13-0.318l35.3-39.9A0.472,0.472,0,0,1,357.342,369.347Z" transform="translate(-179.656 -368.812)"/>
  <path id="Web_Design" data-name="Web Design" class="cls-1" d="M399.142,396.763h3.576l3.912-11.329,3.889,11.329h3.552l4.992-16.49h-3.84l-3.048,11.065-3.648-11.065h-3.841l-3.648,11.065-3.048-11.065h-3.841Zm29.712-2.809A3.014,3.014,0,0,1,425.9,391.7h8.953c0-4.68-2.28-7.633-6.168-7.633a6.252,6.252,0,0,0-6.385,6.457,6.385,6.385,0,0,0,6.577,6.529,7.574,7.574,0,0,0,5.064-1.921l-2.232-2.28A4.493,4.493,0,0,1,428.854,393.954Zm-0.024-6.792a2.589,2.589,0,0,1,2.664,2.016h-5.545A3,3,0,0,1,428.83,387.162Zm17.975-3.1a5.108,5.108,0,0,0-4.152,2.017v-6.1h-3.5v16.778h3.5V395.01a5.06,5.06,0,0,0,4.152,2.041c3.313,0,5.713-2.689,5.713-6.5C452.518,386.754,450.118,384.065,446.805,384.065ZM445.8,394.1a3.168,3.168,0,0,1-3.144-3.072v-0.96a3.164,3.164,0,0,1,3.144-3.048A3.548,3.548,0,0,1,445.8,394.1Zm19.967,2.665h5.9c5.544,0,9.481-3.433,9.481-8.257s-3.937-8.233-9.481-8.233h-5.9v16.49Zm3.529-3.217V383.489h2.832c3.144,0,5.376,2.089,5.376,5.017,0,2.952-2.232,5.04-5.376,5.04h-2.832Zm22.272,0.408a3.013,3.013,0,0,1-2.953-2.256h8.953c0-4.68-2.28-7.633-6.168-7.633a6.252,6.252,0,0,0-6.385,6.457,6.385,6.385,0,0,0,6.577,6.529,7.574,7.574,0,0,0,5.064-1.921l-2.232-2.28A4.493,4.493,0,0,1,491.565,393.954Zm-0.024-6.792a2.589,2.589,0,0,1,2.664,2.016H488.66A3,3,0,0,1,491.541,387.162Zm14.975,9.889c3.048,0,5.041-1.561,5.041-4.009,0-2.712-2.377-3.432-4.513-3.984-1.68-.456-2.184-0.648-2.184-1.32,0-.432.6-0.744,1.464-0.744a7.023,7.023,0,0,1,3.48,1.1l1.417-2.5a9.035,9.035,0,0,0-4.9-1.537c-2.928,0-4.872,1.681-4.848,4.033,0.024,2.448,1.992,3.144,4.536,3.768,1.272,0.336,2.184.576,2.184,1.344,0,0.552-.672.936-1.608,0.936a7.06,7.06,0,0,1-4.152-1.392l-1.512,2.424A9.167,9.167,0,0,0,506.516,397.051Zm11.064-14.4a1.9,1.9,0,1,0-1.92-1.92A1.9,1.9,0,0,0,517.58,382.649ZM515.8,396.763h3.5V384.354h-3.5v12.409Zm17.448-12.409v1.68a5.111,5.111,0,0,0-4.1-1.969c-3.12,0-5.5,2.425-5.5,5.881s2.377,5.9,5.5,5.9a5.281,5.281,0,0,0,4.1-1.921V395.3c0,1.609-1.44,2.641-3.7,2.641a5.864,5.864,0,0,1-3.7-1.176l-1.225,2.472a9.271,9.271,0,0,0,5.473,1.656c3.912,0,6.672-2.256,6.672-5.449V384.354h-3.528Zm-3,8.544a2.941,2.941,0,1,1,3-2.952A2.861,2.861,0,0,1,530.252,392.9Zm18.7-8.833a4.424,4.424,0,0,0-3.745,1.849v-1.56h-3.5v12.409h3.5v-7.417l0.024,0.072a2.47,2.47,0,0,1,2.593-2.4,2.364,2.364,0,0,1,2.352,2.592v7.153h3.384v-7.9A4.528,4.528,0,0,0,548.948,384.065Z" transform="translate(-179.656 -368.812)"/>
</svg>
