<svg xmlns="http://www.w3.org/2000/svg" width="668.784" height="42.65" viewBox="0 0 668.784 42.65">
  <defs>
    <style>
      .cls-1 {
        fill: #fff;
        fill-rule: evenodd;
      }
    </style>
  </defs>
  <path id="MEHERE.svg" class="cls-1" d="M480.061,3842.83a22.422,22.422,0,0,0,16.379-7.14l-7.44-6.6a11.614,11.614,0,0,1-8.939,4.44c-6.3,0-11.64-5.52-11.64-12.06a12.005,12.005,0,0,1,11.64-12,11.5,11.5,0,0,1,8.879,4.44l7.5-6.66a22.591,22.591,0,0,0-16.379-7.07c-12,0-22.14,9.71-22.14,21.29S468.061,3842.83,480.061,3842.83Zm48.059,0c12.059,0,22.2-9.78,22.2-21.36s-10.14-21.29-22.2-21.29c-12,0-22.139,9.71-22.139,21.29S516.12,3842.83,528.12,3842.83Zm0-9.3c-6.3,0-11.64-5.52-11.64-12.06a11.645,11.645,0,1,1,23.279,0C539.759,3828.01,534.42,3833.53,528.12,3833.53Zm34.38,8.58h10.26v-24.36l17.939,24.36h10.259v-41.22H590.7v24.36l-17.939-24.36H562.5v41.22Zm62.639,0H635.4v-32.04h12.479v-9.18H612.6v9.18h12.539v32.04Zm63.419,0h11.52l-16.319-41.22h-11.52l-16.319,41.22h11.519l2.4-6h16.319Zm-15.539-14.04,4.98-12.66,4.98,12.66h-9.96Zm57.9,14.76a22.422,22.422,0,0,0,16.379-7.14l-7.44-6.6a11.613,11.613,0,0,1-8.939,4.44c-6.3,0-11.64-5.52-11.64-12.06a12.005,12.005,0,0,1,11.64-12,11.494,11.494,0,0,1,8.879,4.44l7.5-6.66a22.591,22.591,0,0,0-16.379-7.07c-12,0-22.139,9.71-22.139,21.29S718.919,3842.83,730.919,3842.83Zm37.8-.72h10.26v-32.04h12.479v-9.18H756.179v9.18h12.539v32.04Zm56.94,0h10.259v-23.88l11.88,21.48,11.879-21.48v23.88h10.26v-41.22h-10.26L847.8,3822.37l-11.88-21.48H825.658v41.22Zm90.6-32.04v-9.18H883.8v41.22h32.458v-9.18h-22.2v-7.26h20.159v-9.18H894.057v-6.42h22.2Zm61.979-9.18v15.6H961.376v-15.6h-10.26v41.22h10.26v-16.44h16.859v16.44H988.5v-41.22h-10.26Zm56.4,9.18v-9.18h-32.45v41.22h32.45v-9.18h-22.19v-7.26h20.15v-9.18h-20.15v-6.42h22.19Zm48.3,32.04-9.96-14.16a13.559,13.559,0,0,0,8.76-12.9c0-8.34-6.6-14.16-15.66-14.16h-19.13v41.22h10.26v-12.9h5.04l9.05,12.9h11.64Zm-25.73-31.86h7.91c3.54,0,6.06,1.92,6.06,4.8s-2.52,4.8-6.06,4.8h-7.91v-9.6Zm69.47-.18v-9.18h-32.45v41.22h32.45v-9.18h-22.2v-7.26h20.16v-9.18h-20.16v-6.42h22.2Z" transform="translate(-457.906 -3800.19)"/>
</svg>
