<svg id="name.svg" xmlns="http://www.w3.org/2000/svg" width="420.875" height="152.219" viewBox="0 0 420.875 152.219">
  <defs>
    <style>
      .cls-1 {
        fill-rule: evenodd;
      }
    </style>
  </defs>
  <path id="HIROYUKI_" data-name="HIROYUKI " class="cls-1" d="M196.2,187.366v20.521H172.409V187.366H161.236v52.215h11.173V218H196.2v21.585H207.37V187.366H196.2Zm33.818,52.215h11.248V187.366H230.016v52.215Zm77.977,0L295.148,221.34c7.145-2.508,11.857-8.588,11.857-16.341,0-10.336-8.36-17.633-19.685-17.633H263.835v52.215h11.172V222.632h8.285l11.932,16.949h12.769Zm-32.986-41.954h11.1c5.548,0,9.348,2.888,9.348,7.372s-3.8,7.373-9.348,7.373h-11.1V197.627Zm73.645,42.866c15.124,0,27.741-12.388,27.741-27.057s-12.617-26.982-27.741-26.982c-14.973,0-27.742,12.313-27.742,26.982S333.679,240.493,348.652,240.493Zm0-10.184c-8.741,0-16.189-7.753-16.189-16.873,0-9.045,7.448-16.8,16.189-16.8,8.816,0,16.265,7.752,16.265,16.8C364.917,222.556,357.468,230.309,348.652,230.309Zm54.643,9.272h11.324V220.732l20.37-33.366H422.448l-13.529,22.878-13-22.878H382.85L403.3,220.732v18.849Zm65.283,0.912c13.833,0,23.637-9.728,23.637-23.485V187.366H480.967v29.186c0,8.056-5.168,13.757-12.389,13.757-7.3,0-12.465-5.7-12.465-13.757V187.366H444.941v29.642C444.941,230.765,454.669,240.493,468.578,240.493Zm41.8-.912h11.173V224.988L528.085,218l16.037,21.585h13.605l-21.814-29.565,20.37-22.65H542.678l-21.129,23.942V187.366H510.376v52.215Zm60.5,0H582.12V187.366H570.871v52.215Z" transform="translate(-161.25 -186.469)"/>
  <path id="TAKASE" class="cls-1" d="M178.366,337.763h11.249V295.656H205.88V285.548H162.1v10.108h16.265v42.107Zm79.421,0H270.4l-21.281-52.215H236.582L215.3,337.763h12.54l3.345-8.209h23.257Zm-22.725-17.709,7.752-19.077,7.753,19.077h-15.5Zm50.994,17.709h11.173V323.17l6.536-6.993L319.8,337.763h13.6L311.594,308.2l20.369-22.649H318.358l-21.129,23.941V285.548H286.056v52.215Zm100.17,0h12.616l-21.281-52.215h-12.54l-21.282,52.215H356.28l3.344-8.209h23.257ZM363.5,320.054l7.753-19.077,7.752,19.077H363.5Zm70.376,18.621c12.769,0,20.293-6.613,20.293-16.569,0-9.653-7.448-13-18.7-15.5-8.056-1.824-11.172-3.04-11.172-6.84,0-3.117,2.888-5.625,7.676-5.625,5.016,0,10.26,2.052,14.9,5.777l5.852-8.057c-5.32-4.56-11.933-7.22-20.445-7.22-11.4,0-19.3,6.612-19.3,16.265,0,10.108,7.828,13.224,18.849,15.732,7.98,1.825,11.02,2.965,11.02,6.689,0,3.268-2.888,5.852-8.512,5.852-6.612,0-12.237-2.584-17.177-6.84l-6.46,7.676A33.539,33.539,0,0,0,433.876,338.675Zm77.673-43.019V285.548H471.343v52.215h40.206V327.654H482.591V316.177h26.222V306.069H482.591V295.656h28.958Z" transform="translate(-161.25 -186.469)"/>
</svg>
