<svg xmlns="http://www.w3.org/2000/svg" width="294.625" height="14.906" viewBox="0 0 294.625 14.906">
  <defs>
    <style>
      .cls-1 {
        fill-rule: evenodd;
      }
    </style>
  </defs>
  <path id="PORTFOLIO_.svg" data-name="PORTFOLIO .svg" class="cls-1" d="M178.278,385.6h3.591v-4.514h3.107c3.17,0,5.48-2.037,5.48-4.955s-2.31-4.955-5.48-4.955h-6.7V385.6Zm3.591-7.79v-3.359h2.771c1.239,0,2.121.672,2.121,1.68s-0.882,1.679-2.121,1.679h-2.771Zm39,8.042a7.469,7.469,0,1,0-7.748-7.475A7.721,7.721,0,0,0,220.865,385.854Zm0-3.255a4.212,4.212,0,1,1,4.073-4.22A4.2,4.2,0,0,1,220.865,382.6Zm43.889,3-3.486-4.955a4.745,4.745,0,0,0,3.066-4.514c0-2.919-2.31-4.955-5.48-4.955h-6.7V385.6h3.59v-4.514h1.764l3.17,4.514h4.074Zm-9.008-11.149h2.772c1.239,0,2.12.672,2.12,1.68s-0.881,1.679-2.12,1.679h-2.772v-3.359ZM291.635,385.6h3.59V374.39h4.368v-3.212H287.247v3.212h4.388V385.6Zm42.65-11.212v-3.212H322.926V385.6h3.59v-5.417h7.055v-3.212h-7.055V374.39h7.769Zm30.765,11.464a7.469,7.469,0,1,0-7.747-7.475A7.722,7.722,0,0,0,365.05,385.854Zm0-3.255a4.212,4.212,0,1,1,4.073-4.22A4.206,4.206,0,0,1,365.05,382.6Zm34.819-.209V371.178H396.3V385.6h10.519V382.39h-6.949Zm30.324,3.212h3.59V371.178h-3.59V385.6Zm34.942,0.252a7.469,7.469,0,1,0-7.747-7.475A7.721,7.721,0,0,0,465.135,385.854Zm0-3.255a4.212,4.212,0,1,1,4.074-4.22A4.206,4.206,0,0,1,465.135,382.6Z" transform="translate(-178.281 -370.938)"/>
</svg>
