<svg xmlns="http://www.w3.org/2000/svg" width="290.594" height="14.906" viewBox="0 0 290.594 14.906">
  <defs>
    <style>
      .cls-1 {
        fill-rule: evenodd;
      }
    </style>
  </defs>
  <path id="PORTFOLIO.svg" class="cls-1" d="M178.509,385.6h2.121v-5.018h3.947c3.045,0,5.354-1.953,5.354-4.7s-2.309-4.7-5.354-4.7h-6.068V385.6Zm2.121-6.992v-5.459h3.653c2.079,0,3.486,1.029,3.486,2.73s-1.407,2.729-3.486,2.729H180.63Zm39.857,7.244a7.464,7.464,0,1,0-7.5-7.475A7.555,7.555,0,0,0,220.487,385.854Zm0-1.953a5.516,5.516,0,1,1,5.291-5.522A5.488,5.488,0,0,1,220.487,383.9Zm42.9-8.02c0-2.751-2.31-4.7-5.354-4.7h-6.068V385.6h2.12v-5.018H257.4l3.527,5.018h2.436l-3.675-5.228A4.631,4.631,0,0,0,263.389,375.881Zm-9.3-2.73h3.654c2.078,0,3.485,1.029,3.485,2.73s-1.407,2.729-3.485,2.729h-3.654v-5.459ZM291.236,385.6h2.121V373.151H298.1v-1.973h-11.59v1.973h4.724V385.6Zm41.306-12.451v-1.973h-10.6V385.6h2.141v-6.278h7.643V377.35H324.08v-4.2h8.462Zm30.7,12.7a7.464,7.464,0,1,0-7.5-7.475A7.556,7.556,0,0,0,363.244,385.854Zm0-1.953a5.516,5.516,0,1,1,5.291-5.522A5.489,5.489,0,0,1,363.244,383.9Zm33.433-.273v-12.45h-2.142V385.6h9.784v-1.974h-7.642Zm31.311,1.974h2.121V371.178h-2.121V385.6Zm33.64,0.252a7.464,7.464,0,1,0-7.5-7.475A7.555,7.555,0,0,0,461.628,385.854Zm0-1.953a5.516,5.516,0,1,1,5.291-5.522A5.489,5.489,0,0,1,461.628,383.9Z" transform="translate(-178.5 -370.938)"/>
</svg>
