<svg xmlns="http://www.w3.org/2000/svg" width="234.157" height="42.65" viewBox="0 0 234.157 42.65">
  <defs>
    <style>
      .cls-1 {
        fill-rule: evenodd;
      }
    </style>
  </defs>
  <path id="WORKS.svg" class="cls-1" d="M228.774,1103.6h10.32l9.179-26.1,9.18,26.1h10.319l11.94-41.22h-11.1l-6.3,25.74-8.52-25.74h-11.04l-8.579,25.74-6.3-25.74h-11.1Zm75,0.72c12.06,0,22.2-9.78,22.2-21.36s-10.139-21.3-22.2-21.3c-12,0-22.139,9.72-22.139,21.3S291.774,1104.32,303.773,1104.32Zm0-9.3c-6.3,0-11.639-5.52-11.639-12.06a11.645,11.645,0,1,1,23.279,0C315.413,1089.5,310.073,1095.02,303.773,1095.02Zm64.2,8.58-9.96-14.16a13.559,13.559,0,0,0,8.76-12.9c0-8.34-6.6-14.16-15.659-14.16h-19.14v41.22h10.26v-12.9h5.04l9.059,12.9h11.64Zm-25.739-31.86h7.92c3.54,0,6.059,1.92,6.059,4.8s-2.519,4.8-6.059,4.8h-7.92v-9.6Zm32.34,31.86h10.259v-11.22l4.74-5.1,11.58,16.32h12.359l-16.859-23.7,15.659-17.52H400.132l-15.3,17.58v-17.58H374.573v41.22Zm59.879,0.72c10.2,0,16.5-5.16,16.5-13.44,0-7.74-5.94-10.38-15.18-12.36-6.119-1.32-8.1-2.16-8.1-4.68,0-2.04,1.86-3.6,5.16-3.6a19.751,19.751,0,0,1,11.759,4.38l5.22-7.32c-4.38-3.66-9.78-5.64-16.679-5.64-9.42,0-15.78,5.28-15.78,13.2,0,8.28,6.54,10.68,15.36,12.66,6,1.44,7.919,1.98,7.919,4.44,0,2.22-1.98,3.78-5.819,3.78a21.065,21.065,0,0,1-13.56-5.22l-5.76,6.9A27.911,27.911,0,0,0,434.452,1104.32Z" transform="translate(-216.781 -1061.66)"/>
</svg>
