<svg xmlns="http://www.w3.org/2000/svg" width="507.562" height="106.63" viewBox="0 0 507.562 106.63">
  <defs>
    <style>
      .cls-1 {
        fill-rule: evenodd;
      }
    </style>
  </defs>
  <path id="WORK.svg" class="cls-1" d="M192.533,1616.61H214.88l24.447-70.79,24.3,70.79h22.2l31.2-103.04h-24l-19.048,69.14-22.8-69.14h-24l-22.8,69.14-19.047-69.14h-24Zm191.4,1.8c29.846,0,54.743-24.45,54.743-53.4s-24.9-53.24-54.743-53.24c-29.547,0-54.744,24.3-54.744,53.24S354.381,1618.41,383.928,1618.41Zm0-20.1c-17.248,0-31.946-15.3-31.946-33.3,0-17.84,14.7-33.14,31.946-33.14,17.4,0,32.1,15.3,32.1,33.14C416.024,1583.01,401.326,1598.31,383.928,1598.31Zm164.245,18.3-25.347-36c14.1-4.95,23.4-16.95,23.4-32.25,0-20.39-16.5-34.79-38.845-34.79H461.033v103.04h22.048v-33.45h16.348l23.547,33.45h25.2Zm-65.092-82.79h21.9c10.949,0,18.448,5.7,18.448,14.54s-7.5,14.55-18.448,14.55h-21.9v-29.09Zm92.4,82.79H597.53v-28.8l12.9-13.8,31.646,42.6h26.847l-43.045-58.35,40.2-44.69H639.225l-41.7,47.24v-47.24H575.482v103.04Z" transform="translate(-161.344 -1511.78)"/>
</svg>
