<svg xmlns="http://www.w3.org/2000/svg" width="431.5" height="2347" viewBox="0 0 431.5 2347">
  <defs>
    <style>
      .cls-1 {
        fill: #fff;
        stroke: #000;
        stroke-linejoin: round;
        stroke-width: 1px;
        fill-rule: evenodd;
      }
    </style>
  </defs>
  <path id="WORKS-background.svg" class="cls-1" d="M944.583,703.192v103.2l261,91.8-261,91.8v103.2l412.2,119.4v-111l-257.4-63,257.4-85.2v-110.4l-257.4-85.8,257.4-63v-111Zm-7.2,750c0,120.6,97.8,222,213.6,222s213-101.4,213-222c0-120-97.2-221.4-213-221.4S937.383,1333.19,937.383,1453.19Zm93,0c0-63,55.2-116.4,120.6-116.4,64.8,0,120,53.4,120,116.4s-55.2,116.4-120,116.4C1085.58,1569.59,1030.38,1516.19,1030.38,1453.19Zm-85.8,641.99,141.6-99.6c21.6,53.4,69,87.6,129,87.6,83.4,0,141.6-66,141.6-156.6v-191.4h-412.2v102.6h129v50.4l-129,90.6v116.4Zm318.6-257.4v79.2c0,35.4-19.2,60.6-48,60.6s-48-25.2-48-60.6v-79.2h96Zm-318.6,323.4v102.6h112.2l51,47.4-163.2,115.79v123.6l237-168.6,175.2,156.6v-121.8l-175.8-152.99h175.8v-102.6h-412.2Zm-7.2,598.79c0,102,51.6,165,134.4,165,77.4,0,103.8-59.4,123.6-151.8,13.2-61.2,21.6-81,46.8-81,20.4,0,36,18.6,36,51.6,0,38.4-15,79.8-43.8,117.6l73.2,52.2c36.6-43.8,56.4-97.8,56.4-166.8,0-94.2-52.8-157.8-132-157.8-82.8,0-106.8,65.4-126.6,153.6-14.4,60-19.8,79.2-44.4,79.2-22.2,0-37.8-19.8-37.8-58.2,0-50.4,19.2-95.4,52.2-135.6l-69-57.6C961.383,2620.17,937.383,2686.77,937.383,2759.97Z" transform="translate(-934.5 -580.5)"/>
</svg>
