<svg xmlns="http://www.w3.org/2000/svg" width="187.344" height="34.128" viewBox="0 0 187.344 34.128">
  <defs>
    <style>
      .cls-1 {
        fill-rule: evenodd;
      }
    </style>
  </defs>
  <path id="WORKS.svg" class="cls-1" d="M173.207,1032.6h8.257l7.345-20.88,7.344,20.88h8.257l9.553-32.977h-8.881l-5.04,20.6-6.817-20.6h-8.833l-6.864,20.6-5.041-20.6h-8.88Zm60,0.58c9.649,0,17.762-7.83,17.762-17.09s-8.113-17.043-17.762-17.043c-9.6,0-17.713,7.773-17.713,17.043S223.607,1033.18,233.208,1033.18Zm0-7.44a9.63,9.63,0,1,1,9.313-9.65A9.619,9.619,0,0,1,233.208,1025.74Zm51.361,6.86-7.969-11.33a10.849,10.849,0,0,0,7.008-10.32c0-6.67-5.28-11.327-12.529-11.327H255.766V1032.6h8.209v-10.32h4.032l7.249,10.32h9.313Zm-20.594-25.49h6.336c2.833,0,4.849,1.54,4.849,3.84s-2.016,3.84-4.849,3.84h-6.336v-7.68Zm25.871,25.49h8.208v-8.97l3.793-4.09,9.264,13.06H321l-13.489-18.96,12.529-14.017H310.3l-12.241,14.067V999.623h-8.208V1032.6Zm47.9,0.58c8.161,0,13.2-4.13,13.2-10.75,0-6.2-4.752-8.31-12.145-9.89-4.9-1.06-6.48-1.73-6.48-3.75,0-1.63,1.488-2.88,4.128-2.88a15.774,15.774,0,0,1,9.409,3.51l4.176-5.86a19.926,19.926,0,0,0-13.345-4.513c-7.537,0-12.625,4.223-12.625,10.563,0,6.62,5.232,8.54,12.289,10.13,4.8,1.15,6.337,1.58,6.337,3.55,0,1.78-1.585,3.02-4.657,3.02a16.85,16.85,0,0,1-10.849-4.17l-4.608,5.52A22.331,22.331,0,0,0,337.75,1033.18Z" transform="translate(-163.594 -999.062)"/>
</svg>
