<svg id="work-background.svg" xmlns="http://www.w3.org/2000/svg" width="443.5" height="2177" viewBox="0 0 443.5 2177">
  <defs>
    <style>
      .cls-1 {
        fill: #fff;
        stroke: #000;
        stroke-linejoin: round;
        stroke-width: 1px;
        fill-rule: evenodd;
      }
    </style>
  </defs>
  <path id="W" class="cls-1" d="M925.064,1255.58v95.66l303.026,104.64L925.064,1559.89v95.01l441.056,133.54V1685.72l-295.96-81.54,295.96-97.58V1403.88l-295.96-97.58,295.96-81.54V1122.04Z" transform="translate(-922.5 -1119.5)"/>
  <path id="O" class="cls-1" d="M926.181,2063.92c0,123.38,101.059,226.3,220.719,226.3S1367,2187.3,1367,2063.92c0-122.14-100.44-226.3-220.1-226.3S926.181,1941.78,926.181,2063.92Zm83.079,0c0-71.3,63.24-132.06,137.64-132.06,73.78,0,137.02,60.76,137.02,132.06,0,71.92-63.24,132.68-137.02,132.68C1072.5,2196.6,1009.26,2135.84,1009.26,2063.92Z" transform="translate(-922.5 -1119.5)"/>
  <path id="R" class="cls-1" d="M925.064,2774.86l154.076-108.5c21.19,60.35,72.55,100.15,138.03,100.15,87.31,0,148.95-70.62,148.95-166.27V2401.86H925.064v94.37H1068.23v69.98L925.064,2667v107.86Zm354.386-278.63v93.73c0,46.87-24.4,78.97-62.28,78.97s-62.27-32.1-62.27-78.97v-93.73h124.55Z" transform="translate(-922.5 -1119.5)"/>
  <path id="K" class="cls-1" d="M925.064,2893.07v94.37H1048.33l59.06,55.22L925.064,3178.12v114.91L1174.8,3108.78l191.32,172.06V3165.92l-202.23-178.48h202.23v-94.37H925.064Z" transform="translate(-922.5 -1119.5)"/>
</svg>
